<svg width="263" height="110" viewBox="0 0 263 110" fill="none" xmlns="http://www.w3.org/2000/svg">
<path d="M26.8787 59.8787C25.7071 61.0503 25.7071 62.9497 26.8787 64.1213L45.9706 83.2132C47.1421 84.3848 49.0416 84.3848 50.2132 83.2132C51.3848 82.0416 51.3848 80.1421 50.2132 78.9706L33.2426 62L50.2132 45.0294C51.3848 43.8579 51.3848 41.9584 50.2132 40.7868C49.0416 39.6152 47.1421 39.6152 45.9706 40.7868L26.8787 59.8787ZM225.121 64.1213C226.293 62.9497 226.293 61.0503 225.121 59.8787L206.029 40.7868C204.858 39.6152 202.958 39.6152 201.787 40.7868C200.615 41.9584 200.615 43.8579 201.787 45.0294L218.757 62L201.787 78.9706C200.615 80.1421 200.615 82.0416 201.787 83.2132C202.958 84.3848 204.858 84.3848 206.029 83.2132L225.121 64.1213ZM29 62V65H35.9286V62V59H29V62ZM49.7857 62V65H63.6429V62V59H49.7857V62ZM77.5 62V65H91.3571V62V59H77.5V62ZM105.214 62V65H119.071V62V59H105.214V62ZM132.929 62V65H146.786V62V59H132.929V62ZM160.643 62V65H174.5V62V59H160.643V62ZM188.357 62V65H202.214V62V59H188.357V62ZM216.071 62V65H223V62V59H216.071V62Z" fill="#686868"/>
</svg>
