<svg width="1437" height="315" viewBox="0 0 1437 315" fill="none" xmlns="http://www.w3.org/2000/svg">
<path d="M0.820984 312V3.48438H60.4206V312H0.820984ZM77.8626 312V3.48438H171.82L197.763 191.574L223.531 3.48438H318.365V312H261.92V89.7285L226.511 312H171.118L133.606 89.7285V312H77.8626ZM412.234 314.805C387.576 314.805 368.703 307.384 355.615 292.542C342.643 277.584 336.157 256.023 336.157 227.859V81.3145C336.157 54.9036 342.585 34.8618 355.439 21.189C368.411 7.51611 387.343 0.679688 412.234 0.679688C437.126 0.679688 455.999 7.51611 468.854 21.189C481.826 34.8618 488.311 54.9036 488.311 81.3145V227.859C488.311 256.023 481.767 277.584 468.679 292.542C455.707 307.384 436.892 314.805 412.234 314.805ZM412.76 258.01C422.109 258.01 426.784 248.953 426.784 230.839V80.2627C426.784 65.0706 422.226 57.4746 413.111 57.4746C402.827 57.4746 397.685 65.2459 397.685 80.7886V231.19C397.685 240.773 398.854 247.667 401.191 251.875C403.528 255.965 407.385 258.01 412.76 258.01ZM506.104 312V3.48438H567.457V113.744H596.555V3.48438H657.908V312H596.555V172.116H567.457V312H506.104ZM828.469 314.805C800.305 314.805 779.971 307.793 767.467 293.77C755.079 279.746 748.886 257.425 748.886 226.808V196.657H809.888V235.222C809.888 242.35 810.939 247.96 813.043 252.05C815.263 256.023 819.061 258.01 824.437 258.01C830.046 258.01 833.903 256.374 836.006 253.102C838.227 249.829 839.337 244.454 839.337 236.975C839.337 227.509 838.402 219.621 836.532 213.31C834.662 206.883 831.39 200.806 826.716 195.08C822.158 189.236 815.789 182.458 807.609 174.746L779.912 148.452C759.228 128.936 748.886 106.615 748.886 81.4897C748.886 55.1958 754.962 35.154 767.116 21.3643C779.387 7.57454 797.091 0.679688 820.23 0.679688C848.51 0.679688 868.552 8.21729 880.355 23.2925C892.275 38.3677 898.235 61.2726 898.235 92.0073H835.48V70.7969C835.48 66.5898 834.253 63.3177 831.799 60.9805C829.462 58.6432 826.248 57.4746 822.158 57.4746C817.25 57.4746 813.627 58.877 811.29 61.6816C809.069 64.3695 807.959 67.8753 807.959 72.1992C807.959 76.5231 809.128 81.1976 811.465 86.2227C813.802 91.2477 818.418 97.0324 825.313 103.577L860.898 137.759C868.026 144.537 874.571 151.724 880.531 159.32C886.491 166.799 891.282 175.564 894.905 185.614C898.527 195.547 900.339 207.701 900.339 222.075C900.339 251.056 894.963 273.786 884.212 290.264C873.577 306.624 854.996 314.805 828.469 314.805ZM911.12 312V3.48438H970.719V312H911.12ZM988.161 312V3.48438H1049.86V259.412H1113.32V312H988.161ZM1115.34 312L1145.14 3.48438H1249.79L1279.06 312H1220.69L1216.31 262.217H1179.14L1175.29 312H1115.34ZM1183.53 212.959H1211.57L1198.07 56.0723H1195.27L1183.53 212.959ZM1364.17 314.805C1336 314.805 1315.67 307.793 1303.16 293.77C1290.78 279.746 1284.58 257.425 1284.58 226.808V196.657H1345.58V235.222C1345.58 242.35 1346.64 247.96 1348.74 252.05C1350.96 256.023 1354.76 258.01 1360.13 258.01C1365.74 258.01 1369.6 256.374 1371.7 253.102C1373.92 249.829 1375.03 244.454 1375.03 236.975C1375.03 227.509 1374.1 219.621 1372.23 213.31C1370.36 206.883 1367.09 200.806 1362.41 195.08C1357.85 189.236 1351.49 182.458 1343.31 174.746L1315.61 148.452C1294.92 128.936 1284.58 106.615 1284.58 81.4897C1284.58 55.1958 1290.66 35.154 1302.81 21.3643C1315.08 7.57454 1332.79 0.679688 1355.93 0.679688C1384.21 0.679688 1404.25 8.21729 1416.05 23.2925C1427.97 38.3677 1433.93 61.2726 1433.93 92.0073H1371.18V70.7969C1371.18 66.5898 1369.95 63.3177 1367.5 60.9805C1365.16 58.6432 1361.94 57.4746 1357.85 57.4746C1352.95 57.4746 1349.32 58.877 1346.99 61.6816C1344.77 64.3695 1343.66 67.8753 1343.66 72.1992C1343.66 76.5231 1344.82 81.1976 1347.16 86.2227C1349.5 91.2477 1354.12 97.0324 1361.01 103.577L1396.59 137.759C1403.72 144.537 1410.27 151.724 1416.23 159.32C1422.19 166.799 1426.98 175.564 1430.6 185.614C1434.22 195.547 1436.04 207.701 1436.04 222.075C1436.04 251.056 1430.66 273.786 1419.91 290.264C1409.27 306.624 1390.69 314.805 1364.17 314.805Z" fill="white"/>
</svg>
