<svg width="168" height="36" viewBox="0 0 168 36" fill="none" xmlns="http://www.w3.org/2000/svg">
<path d="M0.210938 35V0.625H6.85156V35H0.210938ZM9.58594 35V0.625H20.0547L22.9453 21.582L25.8164 0.625H36.3828V35H30.0938V10.2344L26.1484 35H19.9766L15.7969 10.2344V35H9.58594ZM47.6328 35.3125C44.8854 35.3125 42.7826 34.4857 41.3242 32.832C39.8789 31.1654 39.1562 28.763 39.1562 25.625V9.29688C39.1562 6.35417 39.8724 4.12109 41.3047 2.59766C42.75 1.07422 44.8594 0.3125 47.6328 0.3125C50.4062 0.3125 52.5091 1.07422 53.9414 2.59766C55.3867 4.12109 56.1094 6.35417 56.1094 9.29688V25.625C56.1094 28.763 55.3802 31.1654 53.9219 32.832C52.4766 34.4857 50.3802 35.3125 47.6328 35.3125ZM47.6914 28.9844C48.7331 28.9844 49.2539 27.9753 49.2539 25.957V9.17969C49.2539 7.48698 48.7461 6.64062 47.7305 6.64062C46.5846 6.64062 46.0117 7.50651 46.0117 9.23828V25.9961C46.0117 27.0638 46.1419 27.832 46.4023 28.3008C46.6628 28.7565 47.0924 28.9844 47.6914 28.9844ZM58.8828 35V0.625H65.7188V12.9102H68.9609V0.625H75.7969V35H68.9609V19.4141H65.7188V35H58.8828ZM96.3828 35.3125C93.2448 35.3125 90.9792 34.5312 89.5859 32.9688C88.2057 31.4062 87.5156 28.9193 87.5156 25.5078V22.1484H94.3125V26.4453C94.3125 27.2396 94.4297 27.8646 94.6641 28.3203C94.9115 28.763 95.3346 28.9844 95.9336 28.9844C96.5586 28.9844 96.9883 28.8021 97.2227 28.4375C97.4701 28.0729 97.5938 27.474 97.5938 26.6406C97.5938 25.5859 97.4896 24.707 97.2812 24.0039C97.0729 23.2878 96.7083 22.6107 96.1875 21.9727C95.6797 21.3216 94.9701 20.5664 94.0586 19.707L90.9727 16.7773C88.668 14.6029 87.5156 12.1159 87.5156 9.31641C87.5156 6.38672 88.1927 4.15365 89.5469 2.61719C90.9141 1.08073 92.8867 0.3125 95.4648 0.3125C98.6159 0.3125 100.849 1.15234 102.164 2.83203C103.492 4.51172 104.156 7.0638 104.156 10.4883H97.1641V8.125C97.1641 7.65625 97.0273 7.29167 96.7539 7.03125C96.4935 6.77083 96.1354 6.64062 95.6797 6.64062C95.1328 6.64062 94.7292 6.79688 94.4688 7.10938C94.2214 7.40885 94.0977 7.79948 94.0977 8.28125C94.0977 8.76302 94.2279 9.28385 94.4883 9.84375C94.7487 10.4036 95.263 11.0482 96.0312 11.7773L99.9961 15.5859C100.79 16.3411 101.52 17.1419 102.184 17.9883C102.848 18.8216 103.382 19.7982 103.785 20.918C104.189 22.0247 104.391 23.3789 104.391 24.9805C104.391 28.2096 103.792 30.7422 102.594 32.5781C101.409 34.401 99.3385 35.3125 96.3828 35.3125ZM106.383 35V0.625H113.023V35H106.383ZM115.758 35V0.625H122.633V29.1406H129.703V35H115.758ZM130.719 35L134.039 0.625H145.699L148.961 35H142.457L141.969 29.4531H137.828L137.398 35H130.719ZM138.316 23.9648H141.441L139.938 6.48438H139.625L138.316 23.9648ZM159.234 35.3125C156.096 35.3125 153.831 34.5312 152.438 32.9688C151.057 31.4062 150.367 28.9193 150.367 25.5078V22.1484H157.164V26.4453C157.164 27.2396 157.281 27.8646 157.516 28.3203C157.763 28.763 158.186 28.9844 158.785 28.9844C159.41 28.9844 159.84 28.8021 160.074 28.4375C160.322 28.0729 160.445 27.474 160.445 26.6406C160.445 25.5859 160.341 24.707 160.133 24.0039C159.924 23.2878 159.56 22.6107 159.039 21.9727C158.531 21.3216 157.822 20.5664 156.91 19.707L153.824 16.7773C151.52 14.6029 150.367 12.1159 150.367 9.31641C150.367 6.38672 151.044 4.15365 152.398 2.61719C153.766 1.08073 155.738 0.3125 158.316 0.3125C161.467 0.3125 163.701 1.15234 165.016 2.83203C166.344 4.51172 167.008 7.0638 167.008 10.4883H160.016V8.125C160.016 7.65625 159.879 7.29167 159.605 7.03125C159.345 6.77083 158.987 6.64062 158.531 6.64062C157.984 6.64062 157.581 6.79688 157.32 7.10938C157.073 7.40885 156.949 7.79948 156.949 8.28125C156.949 8.76302 157.079 9.28385 157.34 9.84375C157.6 10.4036 158.115 11.0482 158.883 11.7773L162.848 15.5859C163.642 16.3411 164.371 17.1419 165.035 17.9883C165.699 18.8216 166.233 19.7982 166.637 20.918C167.04 22.0247 167.242 23.3789 167.242 24.9805C167.242 28.2096 166.643 30.7422 165.445 32.5781C164.26 34.401 162.19 35.3125 159.234 35.3125Z" fill="#111111"/>
</svg>
