<svg width="20" height="20" viewBox="0 0 20 20" fill="none" xmlns="http://www.w3.org/2000/svg">
<rect x="0.5" y="0.5" width="19" height="19" rx="5.5" stroke="#121212" stroke-opacity="0.37"/>
<g clip-path="url(#clip0_3730_5085)">
<g clip-path="url(#clip1_3730_5085)">
<path d="M10.3139 13.1405C10.6016 13.4282 11.0044 13.3995 11.2994 13.1045L13.8601 10.5438C14.2485 10.1554 14.1838 9.80292 13.8529 9.47204L11.2706 6.88973C10.9685 6.58762 10.5872 6.58045 10.3067 6.86098C10.0262 7.14151 10.0406 7.52992 10.3499 7.83923L11.1699 8.65924L12.1194 9.39294L10.2923 9.33538L6.58789 9.32819C6.40088 9.32819 6.21387 9.38574 6.08439 9.51522C5.79668 9.80293 5.79665 10.177 6.08439 10.4647C6.23543 10.6157 6.41527 10.6805 6.58791 10.6805L10.2995 10.6805L12.105 10.6157L11.1555 11.3638L10.3427 12.1766C10.0406 12.4788 10.0334 12.86 10.3139 13.1405Z" fill="black"/>
</g>
</g>
<defs>
<clipPath id="clip0_3730_5085">
<rect width="10" height="10" fill="white" transform="translate(10 2.92969) rotate(45)"/>
</clipPath>
<clipPath id="clip1_3730_5085">
<rect width="10" height="10" fill="white" transform="translate(10 2.92969) rotate(45)"/>
</clipPath>
</defs>
</svg>
