<svg width="20" height="21" viewBox="0 0 20 21" fill="none" xmlns="http://www.w3.org/2000/svg">
<rect x="0.5" y="0.929688" width="19" height="19" rx="5.5" stroke="#C8D3CC" stroke-opacity="0.16"/>
<g clip-path="url(#clip0_3714_2930)">
<g clip-path="url(#clip1_3714_2930)">
<path d="M10.3134 13.5604C10.6011 13.8482 11.0039 13.8194 11.2989 13.5245L13.8596 10.9637C14.248 10.5753 14.1833 10.2228 13.8524 9.89196L11.2701 7.30965C10.968 7.00754 10.5868 7.00037 10.3062 7.2809C10.0257 7.56143 10.0401 7.94984 10.3494 8.25915L11.1694 9.07916L12.1189 9.81286L10.2918 9.7553L6.5874 9.74811C6.4004 9.74811 6.21338 9.80566 6.08391 9.93514C5.79619 10.2229 5.79617 10.5969 6.0839 10.8846C6.23494 11.0357 6.41478 11.1004 6.58742 11.1004L10.299 11.1004L12.1045 11.0357L11.155 11.7837L10.3422 12.5966C10.0401 12.8987 10.0329 13.2799 10.3134 13.5604Z" fill="#F2F5F3"/>
</g>
</g>
<defs>
<clipPath id="clip0_3714_2930">
<rect width="10" height="10" fill="white" transform="translate(10 3.34961) rotate(45)"/>
</clipPath>
<clipPath id="clip1_3714_2930">
<rect width="10" height="10" fill="white" transform="translate(10 3.34961) rotate(45)"/>
</clipPath>
</defs>
</svg>
