<svg width="20" height="21" viewBox="0 0 20 21" fill="none" xmlns="http://www.w3.org/2000/svg">
<rect x="0.5" y="0.830078" width="19" height="19" rx="5.5" stroke="#C8D3CC" stroke-opacity="0.16"/>
<g clip-path="url(#clip0_3714_3030)">
<path d="M12.4419 12.3289C12.8488 12.3289 13.1133 12.0237 13.1133 11.6066V7.9852C13.1133 7.43588 12.8183 7.23242 12.3503 7.23242H8.69839C8.27114 7.23242 7.9965 7.49693 7.9965 7.89366C7.9965 8.29038 8.28131 8.55486 8.71875 8.55486H9.87841L11.0686 8.40228L9.736 9.65349L7.11148 12.2678C6.97924 12.4001 6.8877 12.573 6.8877 12.7561C6.8877 13.163 7.15216 13.4275 7.55908 13.4275C7.77269 13.4275 7.94562 13.3461 8.06771 13.2241L10.6922 10.5996L11.9231 9.27711L11.7807 10.4775V11.627C11.7807 12.0542 12.0452 12.3289 12.4419 12.3289Z" fill="#F2F5F3"/>
</g>
<defs>
<clipPath id="clip0_3714_3030">
<rect width="10" height="10" fill="white" transform="translate(5 5.33008)"/>
</clipPath>
</defs>
</svg>
