<svg width="20" height="20" viewBox="0 0 20 20" fill="none" xmlns="http://www.w3.org/2000/svg">
<rect x="0.5" y="0.5" width="19" height="19" rx="5.5" stroke="#111111" stroke-opacity="0.16"/>
<g clip-path="url(#clip0_3714_3001)">
<path d="M12.4419 11.9988C12.8488 11.9988 13.1133 11.6936 13.1133 11.2765V7.65512C13.1133 7.10581 12.8183 6.90234 12.3503 6.90234H8.69839C8.27114 6.90234 7.9965 7.16685 7.9965 7.56358C7.9965 7.96031 8.28131 8.22479 8.71875 8.22479H9.87841L11.0686 8.0722L9.736 9.32341L7.11148 11.9378C6.97924 12.07 6.8877 12.2429 6.8877 12.426C6.8877 12.8329 7.15216 13.0974 7.55908 13.0974C7.77269 13.0974 7.94562 13.016 8.06771 12.894L10.6922 10.2695L11.9231 8.94704L11.7807 10.1474V11.2969C11.7807 11.7241 12.0452 11.9988 12.4419 11.9988Z" fill="#111111"/>
</g>
<defs>
<clipPath id="clip0_3714_3001">
<rect width="10" height="10" fill="white" transform="translate(5 5)"/>
</clipPath>
</defs>
</svg>
