<svg width="176" height="36" viewBox="0 0 176 36" fill="none" xmlns="http://www.w3.org/2000/svg">
<path d="M9.6875 35.3125C6.54948 35.3125 4.28385 34.5312 2.89062 32.9688C1.51042 31.4062 0.820312 28.9193 0.820312 25.5078V22.1484H7.61719V26.4453C7.61719 27.2396 7.73438 27.8646 7.96875 28.3203C8.21615 28.763 8.63932 28.9844 9.23828 28.9844C9.86328 28.9844 10.293 28.8021 10.5273 28.4375C10.7747 28.0729 10.8984 27.474 10.8984 26.6406C10.8984 25.5859 10.7943 24.707 10.5859 24.0039C10.3776 23.2878 10.013 22.6107 9.49219 21.9727C8.98438 21.3216 8.27474 20.5664 7.36328 19.707L4.27734 16.7773C1.97266 14.6029 0.820312 12.1159 0.820312 9.31641C0.820312 6.38672 1.4974 4.15365 2.85156 2.61719C4.21875 1.08073 6.19141 0.3125 8.76953 0.3125C11.9206 0.3125 14.1536 1.15234 15.4688 2.83203C16.7969 4.51172 17.4609 7.0638 17.4609 10.4883H10.4688V8.125C10.4688 7.65625 10.332 7.29167 10.0586 7.03125C9.79818 6.77083 9.4401 6.64062 8.98438 6.64062C8.4375 6.64062 8.03385 6.79688 7.77344 7.10938C7.52604 7.40885 7.40234 7.79948 7.40234 8.28125C7.40234 8.76302 7.53255 9.28385 7.79297 9.84375C8.05339 10.4036 8.56771 11.0482 9.33594 11.7773L13.3008 15.5859C14.0951 16.3411 14.8242 17.1419 15.4883 17.9883C16.1523 18.8216 16.6862 19.7982 17.0898 20.918C17.4935 22.0247 17.6953 23.3789 17.6953 24.9805C17.6953 28.2096 17.0964 30.7422 15.8984 32.5781C14.7135 34.401 12.6432 35.3125 9.6875 35.3125ZM20 35V0.625H29.082C30.9831 0.625 32.487 1.04818 33.5938 1.89453C34.7135 2.74089 35.5143 3.94531 35.9961 5.50781C36.4779 7.07031 36.7188 8.93229 36.7188 11.0938C36.7188 13.1771 36.5169 14.9935 36.1133 16.543C35.7096 18.0794 34.987 19.2708 33.9453 20.1172C32.9167 20.9635 31.4518 21.3867 29.5508 21.3867H26.7578V35H20ZM26.7578 15.2148H27.1484C28.4245 15.2148 29.2057 14.8568 29.4922 14.1406C29.7786 13.4245 29.9219 12.3698 29.9219 10.9766C29.9219 9.67448 29.7786 8.67188 29.4922 7.96875C29.2188 7.2526 28.5612 6.89453 27.5195 6.89453H26.7578V15.2148ZM37.3828 35L40.7031 0.625H52.3633L55.625 35H49.1211L48.6328 29.4531H44.4922L44.0625 35H37.3828ZM44.9805 23.9648H48.1055L46.6016 6.48438H46.2891L44.9805 23.9648ZM57.7344 35V0.625H68.2812C70.0391 0.625 71.3672 1.02865 72.2656 1.83594C73.1641 2.63021 73.763 3.75 74.0625 5.19531C74.375 6.6276 74.5312 8.3138 74.5312 10.2539C74.5312 12.1289 74.2904 13.6263 73.8086 14.7461C73.3398 15.8659 72.4479 16.6406 71.1328 17.0703C72.2135 17.2917 72.9688 17.832 73.3984 18.6914C73.8411 19.5378 74.0625 20.638 74.0625 21.9922V35H67.2852V21.543C67.2852 20.5404 67.0768 19.9219 66.6602 19.6875C66.2565 19.4401 65.599 19.3164 64.6875 19.3164V35H57.7344ZM64.7266 13.3594H66.3867C67.3372 13.3594 67.8125 12.3242 67.8125 10.2539C67.8125 8.91276 67.7083 8.03385 67.5 7.61719C67.2917 7.20052 66.901 6.99219 66.3281 6.99219H64.7266V13.3594ZM76.7969 35V0.625H83.5938V14.3945L86.7969 0.625H93.7109L89.8633 16.3672L94.5117 35H87.3828L83.6328 18.3594V35H76.7969ZM105.078 35V0.625H111.953V29.1406H119.023V35H105.078ZM120.039 35L123.359 0.625H135.02L138.281 35H131.777L131.289 29.4531H127.148L126.719 35H120.039ZM127.637 23.9648H130.762L129.258 6.48438H128.945L127.637 23.9648ZM140.391 35V0.625H149.707C152.207 0.625 154.023 1.23698 155.156 2.46094C156.302 3.67188 156.875 5.67708 156.875 8.47656V9.98047C156.875 11.5951 156.582 12.9036 155.996 13.9062C155.423 14.9089 154.544 15.5664 153.359 15.8789C154.909 16.2695 155.944 17.1875 156.465 18.6328C156.999 20.0651 157.266 21.8164 157.266 23.8867C157.266 26.1133 157.057 28.0599 156.641 29.7266C156.224 31.3932 155.469 32.6888 154.375 33.6133C153.281 34.5378 151.725 35 149.707 35H140.391ZM147.109 13.5742H148.516C149.154 13.5742 149.564 13.3268 149.746 12.832C149.928 12.3372 150.02 11.7448 150.02 11.0547V7.59766C150.02 6.49089 149.531 5.9375 148.555 5.9375H147.109V13.5742ZM147.793 28.9453C149.577 28.9453 150.469 28.099 150.469 26.4062V22.1094C150.469 21.1328 150.319 20.3646 150.02 19.8047C149.733 19.2318 149.186 18.9453 148.379 18.9453H147.109V28.9062C147.396 28.9323 147.624 28.9453 147.793 28.9453ZM167.695 35.3125C164.557 35.3125 162.292 34.5312 160.898 32.9688C159.518 31.4062 158.828 28.9193 158.828 25.5078V22.1484H165.625V26.4453C165.625 27.2396 165.742 27.8646 165.977 28.3203C166.224 28.763 166.647 28.9844 167.246 28.9844C167.871 28.9844 168.301 28.8021 168.535 28.4375C168.783 28.0729 168.906 27.474 168.906 26.6406C168.906 25.5859 168.802 24.707 168.594 24.0039C168.385 23.2878 168.021 22.6107 167.5 21.9727C166.992 21.3216 166.283 20.5664 165.371 19.707L162.285 16.7773C159.98 14.6029 158.828 12.1159 158.828 9.31641C158.828 6.38672 159.505 4.15365 160.859 2.61719C162.227 1.08073 164.199 0.3125 166.777 0.3125C169.928 0.3125 172.161 1.15234 173.477 2.83203C174.805 4.51172 175.469 7.0638 175.469 10.4883H168.477V8.125C168.477 7.65625 168.34 7.29167 168.066 7.03125C167.806 6.77083 167.448 6.64062 166.992 6.64062C166.445 6.64062 166.042 6.79688 165.781 7.10938C165.534 7.40885 165.41 7.79948 165.41 8.28125C165.41 8.76302 165.54 9.28385 165.801 9.84375C166.061 10.4036 166.576 11.0482 167.344 11.7773L171.309 15.5859C172.103 16.3411 172.832 17.1419 173.496 17.9883C174.16 18.8216 174.694 19.7982 175.098 20.918C175.501 22.0247 175.703 23.3789 175.703 24.9805C175.703 28.2096 175.104 30.7422 173.906 32.5781C172.721 34.401 170.651 35.3125 167.695 35.3125Z" fill="#111111"/>
</svg>
