<svg width="1507" height="315" viewBox="0 0 1507 315" fill="none" xmlns="http://www.w3.org/2000/svg">
<path d="M80.4172 314.805C52.2534 314.805 31.9195 307.793 19.4152 293.77C7.02785 279.746 0.834167 257.425 0.834167 226.808V196.657H61.8361V235.222C61.8361 242.35 62.8879 247.96 64.9914 252.05C67.2118 256.023 71.0098 258.01 76.3854 258.01C81.9948 258.01 85.8513 256.374 87.9548 253.102C90.1752 249.829 91.2853 244.454 91.2853 236.975C91.2853 227.509 90.3504 219.621 88.4807 213.31C86.6109 206.883 83.3387 200.806 78.6642 195.08C74.1066 189.236 67.7377 182.458 59.5573 174.746L31.861 148.452C11.1765 128.936 0.834167 106.615 0.834167 81.4897C0.834167 55.1958 6.91099 35.154 19.0646 21.3643C31.3351 7.57454 49.0397 0.679688 72.1784 0.679688C100.459 0.679688 120.501 8.21729 132.304 23.2925C144.224 38.3677 150.184 61.2726 150.184 92.0073H87.4289V70.7969C87.4289 66.5898 86.2018 63.3177 83.7477 60.9805C81.4105 58.6432 78.1968 57.4746 74.1066 57.4746C69.1984 57.4746 65.5757 58.877 63.2385 61.6816C61.0181 64.3695 59.9079 67.8753 59.9079 72.1992C59.9079 76.5231 61.0765 81.1976 63.4138 86.2227C65.751 91.2477 70.367 97.0324 77.2619 103.577L112.846 137.759C119.975 144.537 126.519 151.724 132.479 159.32C138.439 166.799 143.23 175.564 146.853 185.614C150.476 195.547 152.287 207.701 152.287 222.075C152.287 251.056 146.912 273.786 136.16 290.264C125.526 306.624 106.945 314.805 80.4172 314.805ZM165.873 312V3.48438H247.384C264.446 3.48438 277.944 7.28239 287.877 14.8784C297.927 22.4744 305.114 33.2842 309.438 47.3076C313.762 61.3311 315.924 78.0423 315.924 97.4414C315.924 116.139 314.112 132.442 310.49 146.348C306.867 160.138 300.381 170.831 291.032 178.427C281.8 186.023 268.653 189.821 251.591 189.821H226.524V312H165.873ZM226.524 134.428H230.03C241.483 134.428 248.494 131.215 251.065 124.787C253.636 118.36 254.922 108.894 254.922 96.3896C254.922 84.7035 253.636 75.7051 251.065 69.3945C248.611 62.9671 242.71 59.7534 233.361 59.7534H226.524V134.428ZM314.785 312L344.584 3.48438H449.234L478.508 312H420.136L415.753 262.217H378.591L374.735 312H314.785ZM382.974 212.959H411.02L397.523 56.0723H394.718L382.974 212.959ZM490.341 312V3.48438H584.999C600.775 3.48438 612.695 7.1071 620.759 14.3525C628.822 21.4811 634.198 31.5312 636.886 44.5029C639.69 57.3577 641.093 72.4914 641.093 89.9038C641.093 106.732 638.931 120.171 634.607 130.221C630.4 140.271 622.395 147.225 610.592 151.081C620.291 153.068 627.069 157.917 630.926 165.63C634.899 173.226 636.886 183.101 636.886 195.255V312H576.059V191.223C576.059 182.225 574.189 176.674 570.45 174.57C566.827 172.35 560.926 171.24 552.745 171.24V312H490.341ZM553.096 117.775H567.996C576.527 117.775 580.792 108.485 580.792 89.9038C580.792 77.867 579.857 69.9788 577.987 66.2393C576.118 62.4997 572.612 60.6299 567.47 60.6299H553.096V117.775ZM654.328 312V3.48438H715.33V127.066L744.078 3.48438H806.132L771.599 144.771L813.319 312H749.337L715.68 162.65V312H654.328ZM893.954 312V3.48438H955.657V259.412H1019.11V312H893.954ZM1021.13 312L1050.93 3.48438H1155.58L1184.85 312H1126.48L1122.1 262.217H1084.94L1081.08 312H1021.13ZM1089.32 212.959H1117.37L1103.87 56.0723H1101.06L1089.32 212.959ZM1196.69 312V3.48438H1280.3C1302.74 3.48438 1319.04 8.97689 1329.21 19.9619C1339.49 30.8301 1344.63 48.8268 1344.63 73.9521V87.4497C1344.63 101.941 1342 113.685 1336.74 122.684C1331.6 131.682 1323.71 137.583 1313.08 140.388C1326.99 143.894 1336.28 152.133 1340.95 165.104C1345.74 177.959 1348.14 193.677 1348.14 212.258C1348.14 232.242 1346.27 249.713 1342.53 264.671C1338.79 279.629 1332.01 291.257 1322.2 299.554C1312.38 307.851 1298.41 312 1280.3 312H1196.69ZM1256.99 119.704H1269.61C1275.33 119.704 1279.02 117.483 1280.65 113.042C1282.29 108.602 1283.11 103.285 1283.11 97.0908V66.064C1283.11 56.1307 1278.72 51.1641 1269.96 51.1641H1256.99V119.704ZM1263.12 257.659C1279.13 257.659 1287.14 250.063 1287.14 234.871V196.307C1287.14 187.542 1285.79 180.647 1283.11 175.622C1280.53 170.48 1275.63 167.909 1268.38 167.909H1256.99V257.309C1259.56 257.542 1261.6 257.659 1263.12 257.659ZM1434.65 314.805C1406.48 314.805 1386.15 307.793 1373.64 293.77C1361.26 279.746 1355.06 257.425 1355.06 226.808V196.657H1416.07V235.222C1416.07 242.35 1417.12 247.96 1419.22 252.05C1421.44 256.023 1425.24 258.01 1430.61 258.01C1436.22 258.01 1440.08 256.374 1442.18 253.102C1444.4 249.829 1445.51 244.454 1445.51 236.975C1445.51 227.509 1444.58 219.621 1442.71 213.31C1440.84 206.883 1437.57 200.806 1432.89 195.08C1428.34 189.236 1421.97 182.458 1413.79 174.746L1386.09 148.452C1365.41 128.936 1355.06 106.615 1355.06 81.4897C1355.06 55.1958 1361.14 35.154 1373.29 21.3643C1385.56 7.57454 1403.27 0.679688 1426.41 0.679688C1454.69 0.679688 1474.73 8.21729 1486.53 23.2925C1498.45 38.3677 1504.41 61.2726 1504.41 92.0073H1441.66V70.7969C1441.66 66.5898 1440.43 63.3177 1437.98 60.9805C1435.64 58.6432 1432.43 57.4746 1428.34 57.4746C1423.43 57.4746 1419.8 58.877 1417.47 61.6816C1415.25 64.3695 1414.14 67.8753 1414.14 72.1992C1414.14 76.5231 1415.31 81.1976 1417.64 86.2227C1419.98 91.2477 1424.6 97.0324 1431.49 103.577L1467.08 137.759C1474.2 144.537 1480.75 151.724 1486.71 159.32C1492.67 166.799 1497.46 175.564 1501.08 185.614C1504.7 195.547 1506.52 207.701 1506.52 222.075C1506.52 251.056 1501.14 273.786 1490.39 290.264C1479.75 306.624 1461.17 314.805 1434.65 314.805Z" fill="#111111"/>
</svg>
