<svg width="30" height="30" viewBox="0 0 30 30" fill="none" xmlns="http://www.w3.org/2000/svg">
<g opacity="0.6">
<g clip-path="url(#clip0_3730_6351)">
<g clip-path="url(#clip1_3730_6351)">
<path d="M15.6268 21.281C16.2023 21.8565 17.0079 21.7989 17.5977 21.2091L22.7192 16.0876C23.496 15.3108 23.3666 14.6058 22.7048 13.9441L17.5402 8.77946C16.936 8.17524 16.1735 8.1609 15.6125 8.72196C15.0514 9.28302 15.0801 10.0598 15.6988 10.6785L17.3388 12.3185L19.2378 13.7859L15.5837 13.6708L8.17481 13.6564C7.80079 13.6564 7.42676 13.7715 7.16781 14.0304C6.59237 14.6059 6.59233 15.3539 7.1678 15.9294C7.46988 16.2315 7.82956 16.361 8.17483 16.361L15.598 16.361L19.209 16.2315L17.31 17.7276L15.6844 19.3533C15.0801 19.9575 15.0658 20.72 15.6268 21.281Z" fill="#111111"/>
</g>
</g>
</g>
<defs>
<clipPath id="clip0_3730_6351">
<rect width="20" height="20" fill="white" transform="translate(15 0.859375) rotate(45)"/>
</clipPath>
<clipPath id="clip1_3730_6351">
<rect width="20" height="20" fill="white" transform="translate(15 0.859375) rotate(45)"/>
</clipPath>
</defs>
</svg>
