<svg width="25" height="25" viewBox="0 0 25 25" fill="none" xmlns="http://www.w3.org/2000/svg">
<path d="M16.0701 3.84402L14.6421 4.62502L16.0701 5.40602L16.8511 6.83402L17.6321 5.40602L19.0601 4.62502L17.6321 3.84402L16.8521 2.41602L16.0701 3.84402ZM2.22607 12.5C2.22607 6.97702 6.70307 2.50002 12.2261 2.50002H13.9601L13.0921 4.00002C12.5131 5.00002 12.2261 6.18902 12.2261 7.50002C12.2259 8.53363 12.4547 9.55446 12.8959 10.4892C13.3371 11.4239 13.9799 12.2493 14.778 12.9061C15.5761 13.5629 16.5097 14.0348 17.5119 14.2879C18.514 14.541 19.5598 14.5691 20.5741 14.37L22.2561 14.043L21.7131 15.669C21.0483 17.6587 19.7745 19.389 18.0721 20.6149C16.3698 21.8408 14.3249 22.5003 12.2271 22.5C6.70407 22.5 2.22607 18.023 2.22607 12.5ZM20.7271 6.91602L21.6411 8.58602L23.3101 9.50002L21.6401 10.414L20.7261 12.084L19.8131 10.414L18.1431 9.50002L19.8131 8.58602L20.7271 6.91602Z" fill="#38383B"/>
</svg>
